<?xml version="1.0" standalone="no"?>
<!DOCTYPE svg PUBLIC "-//W3C//DTD SVG 20010904//EN"
 "http://www.w3.org/TR/2001/REC-SVG-20010904/DTD/svg10.dtd">
<svg version="1.0" xmlns="http://www.w3.org/2000/svg"
 width="875.000000pt" height="872.000000pt" viewBox="0 0 875.000000 872.000000"
 preserveAspectRatio="xMidYMid meet">

<g transform="translate(0.000000,872.000000) scale(0.100000,-0.100000)"
fill="#000000" stroke="none">
<path d="M0 4360 l0 -4360 4375 0 4375 0 0 4360 0 4360 -4375 0 -4375 0 0
-4360z m4251 2489 c21 -7 53 -27 71 -46 18 -18 101 -151 184 -295 84 -144 156
-263 161 -265 4 -1 82 118 173 264 96 154 178 275 195 288 49 37 91 45 231 45
l134 0 0 -1205 0 -1205 -187 2 -188 3 -5 800 -5 800 -89 -145 c-49 -80 -103
-160 -120 -179 -83 -90 -217 -92 -297 -5 -31 34 -497 842 -515 894 -57 157 90
299 257 249z m-823 -8 c-1 -5 -88 -102 -192 -215 l-189 -206 -46 0 c-74 0
-170 -27 -268 -76 -297 -147 -466 -483 -409 -812 46 -262 200 -479 418 -586
122 -61 212 -79 348 -73 279 14 511 168 638 424 20 40 33 76 28 80 -4 4 -196
8 -426 8 -408 0 -420 1 -447 21 -42 31 -56 70 -61 164 -5 104 8 157 48 195
l31 30 499 5 499 5 -147 260 c-81 142 -150 258 -155 257 -4 -1 -75 -83 -157
-182 l-150 -180 -230 0 c-127 0 -230 2 -230 5 0 8 617 763 664 813 58 62 88
75 157 70 42 -3 66 -11 91 -30 25 -20 178 -283 631 -1082 568 -1003 598 -1058
599 -1106 0 -101 -73 -179 -177 -188 -66 -5 -105 9 -143 52 -15 17 -126 205
-246 418 l-219 387 -42 -104 c-154 -383 -472 -652 -875 -738 -120 -25 -321
-27 -426 -4 -238 53 -440 169 -610 350 -262 277 -377 643 -319 1017 86 562
497 964 1045 1023 77 8 471 7 468 -2z m3042 -151 l0 -150 -310 0 -310 0 0
-375 0 -375 310 0 310 0 0 -150 0 -150 -310 0 -310 0 0 -380 0 -380 310 0 311
0 -3 -147 -3 -148 -450 -3 c-247 -1 -465 0 -482 3 l-33 6 0 1199 0 1200 485 0
485 0 0 -150z m-344 -255 c24 -10 39 -25 50 -51 20 -47 11 -87 -28 -119 -69
-58 -168 -13 -168 77 1 49 14 71 56 93 36 19 46 19 90 0z m17 -305 c38 -30 52
-80 33 -123 -15 -37 -59 -67 -96 -67 -29 0 -77 27 -90 49 -5 11 -10 38 -10 61
0 84 97 132 163 80z m39 -807 c14 -13 18 -31 18 -90 l0 -73 70 0 c79 0 90 -10
90 -76 0 -58 -21 -74 -97 -74 l-63 0 0 -74 c0 -88 -9 -98 -77 -94 l-48 3 -3
83 -3 82 -60 0 c-87 0 -99 9 -99 73 0 29 5 58 12 65 7 7 40 12 80 12 l68 0 0
80 c0 65 3 81 18 89 26 16 73 13 94 -6z m-1792 -1217 c0 -125 -8 -157 -48
-199 -60 -64 -77 -67 -347 -67 l-245 0 0 -300 0 -300 320 0 320 0 0 -190 0
-190 -320 0 -320 0 0 -250 0 -249 268 -3 269 -3 37 -29 c57 -43 66 -75 66
-226 l0 -130 -475 0 -474 0 -3 105 -3 104 -65 -41 c-82 -53 -192 -100 -295
-128 -114 -31 -331 -39 -446 -15 -313 63 -591 279 -743 577 -92 179 -126 319
-126 519 0 439 224 825 588 1012 96 50 225 93 317 106 33 5 435 9 893 10 l832
1 0 -114z m1050 4 c0 -153 -26 -210 -115 -251 -35 -16 -68 -19 -282 -19 l-243
0 0 -300 0 -300 320 0 320 0 0 -190 0 -190 -320 0 -320 0 0 -250 0 -250 253 0
c246 0 255 -1 297 -23 73 -38 90 -84 90 -234 l0 -123 -475 0 -475 0 0 1120 0
1120 475 0 475 0 0 -110z m398 84 c29 -14 65 -42 82 -62 59 -72 60 -79 60
-604 l0 -478 71 82 c39 46 155 174 258 285 l186 203 249 0 c232 0 248 -1 235
-17 -8 -9 -142 -161 -297 -337 -156 -177 -286 -327 -289 -334 -3 -6 115 -223
261 -481 146 -258 266 -472 266 -475 0 -4 -95 -5 -211 -4 l-212 3 -193 330
c-107 181 -197 331 -201 332 -5 1 -34 -32 -65 -74 l-58 -76 0 -258 0 -259
-200 0 -200 0 0 1104 c0 871 3 1106 13 1113 50 40 172 44 245 7z"/>
<path d="M2775 3850 c-88 -10 -143 -25 -221 -60 -204 -92 -365 -279 -425 -495
-32 -112 -32 -278 0 -389 42 -153 134 -295 251 -392 67 -55 211 -128 300 -151
89 -24 282 -24 370 0 125 34 250 103 343 189 l47 44 0 137 0 137 -192 2 c-106
1 -281 2 -389 2 -221 1 -229 4 -249 75 -15 54 -12 196 4 236 28 65 47 69 344
61 144 -4 312 -4 372 0 l110 7 0 303 0 304 -297 -1 c-164 -1 -329 -5 -368 -9z"/>
</g>
</svg>
