<?xml version="1.0" standalone="no"?>
<!DOCTYPE svg PUBLIC "-//W3C//DTD SVG 20010904//EN"
 "http://www.w3.org/TR/2001/REC-SVG-20010904/DTD/svg10.dtd">
<svg version="1.0" xmlns="http://www.w3.org/2000/svg"
 width="656.000000pt" height="656.000000pt" viewBox="0 0 656.000000 656.000000"
 preserveAspectRatio="xMidYMid meet">
<metadata>
Created by potrace 1.16, written by Peter Selinger 2001-2019
</metadata>
<g transform="translate(0.000000,656.000000) scale(0.100000,-0.100000)"
fill="#000000" stroke="none">
<path d="M2070 5319 c-303 -46 -585 -260 -715 -543 -66 -141 -80 -211 -80
-396 0 -142 3 -176 23 -244 89 -310 315 -552 609 -652 452 -153 945 48 1155
471 71 141 98 261 98 425 0 118 -11 193 -42 290 -101 315 -364 557 -690 635
-80 19 -273 27 -358 14z m325 -244 c33 -8 98 -34 145 -56 71 -35 101 -58 180
-138 75 -76 103 -112 133 -174 104 -214 104 -445 0 -656 -57 -114 -198 -254
-313 -310 -121 -58 -194 -75 -325 -75 -130 0 -205 17 -320 73 -187 92 -323
261 -375 467 -37 145 -22 326 39 467 69 159 233 315 400 378 130 49 301 59
436 24z"/>
<path d="M4195 5319 c-340 -49 -639 -299 -751 -626 -74 -217 -74 -409 0 -626
141 -412 558 -678 990 -629 223 25 415 115 568 267 128 128 210 270 255 445
35 136 35 324 0 460 -45 175 -127 317 -255 445 -209 208 -510 307 -807 264z"/>
<path d="M2053 3106 c-39 -8 -102 -24 -140 -36 -288 -95 -521 -338 -608 -635
-38 -128 -45 -321 -17 -455 117 -566 709 -897 1254 -700 314 113 555 405 608
733 16 95 8 312 -14 392 -43 159 -119 294 -233 415 -129 137 -278 225 -453
270 -108 28 -295 35 -397 16z"/>
<path d="M4169 3105 c-371 -70 -661 -345 -755 -715 -15 -59 -19 -108 -18 -230
1 -139 4 -165 28 -245 103 -339 356 -583 692 -667 113 -28 322 -30 426 -5 302
74 562 292 673 566 96 236 91 524 -13 754 -116 256 -352 454 -627 527 -106 28
-301 35 -406 15z m309 -231 c221 -46 400 -182 498 -379 60 -123 78 -197 78
-325 -1 -121 -18 -201 -68 -305 -106 -224 -309 -371 -562 -406 -216 -30 -460
60 -611 225 -75 82 -118 155 -156 263 -29 81 -31 99 -32 218 0 148 18 225 83
350 48 91 182 228 272 278 160 89 329 116 498 81z"/>
</g>
</svg>
