<?xml version="1.0" standalone="no"?>
<!DOCTYPE svg PUBLIC "-//W3C//DTD SVG 20010904//EN"
 "http://www.w3.org/TR/2001/REC-SVG-20010904/DTD/svg10.dtd">
<svg version="1.0" xmlns="http://www.w3.org/2000/svg"
 width="656.000000pt" height="656.000000pt" viewBox="0 0 656.000000 656.000000"
 preserveAspectRatio="xMidYMid meet">
<metadata>
Created by potrace 1.16, written by Peter Selinger 2001-2019
</metadata>
<g transform="translate(0.000000,656.000000) scale(0.100000,-0.100000)"
fill="#000000" stroke="none">
<path d="M0 3280 l0 -3280 3280 0 3280 0 0 3280 0 3280 -3280 0 -3280 0 0
-3280z m5532 639 c45 -24 48 -55 48 -451 0 -233 -4 -387 -11 -411 -20 -72 166
-67 -2292 -67 -1520 0 -2223 3 -2244 10 -55 20 -57 34 -61 400 -5 401 0 473
34 506 l23 24 2241 0 c1586 0 2247 -3 2262 -11z"/>
<path d="M1160 3460 l0 -240 2120 0 2120 0 0 240 0 240 -2120 0 -2120 0 0
-240z m2360 117 c86 -30 105 -141 36 -204 l-36 -33 -1080 0 c-1170 0 -1116 -2
-1154 52 -24 34 -21 109 6 143 44 57 -5 54 1138 54 791 0 1064 -3 1090 -12z"/>
</g>
</svg>
