<?xml version="1.0" standalone="no"?>
<!DOCTYPE svg PUBLIC "-//W3C//DTD SVG 20010904//EN"
 "http://www.w3.org/TR/2001/REC-SVG-20010904/DTD/svg10.dtd">
<svg version="1.0" xmlns="http://www.w3.org/2000/svg"
 width="656.000000pt" height="656.000000pt" viewBox="0 0 656.000000 656.000000"
 preserveAspectRatio="xMidYMid meet">

<g transform="translate(0.000000,656.000000) scale(0.100000,-0.100000)"
fill="#000000" stroke="none">
<path d="M0 3285 l0 -3275 3275 0 3275 0 0 3275 0 3275 -3275 0 -3275 0 0
-3275z m4779 2171 c27 -14 51 -53 51 -82 0 -29 -29 -71 -57 -83 -21 -8 -407
-11 -1510 -9 l-1481 3 -26 24 c-48 45 -29 131 34 154 8 3 678 6 1488 6 1256 1
1477 -1 1501 -13z m-298 -308 c-355 -484 -1247 -1687 -1251 -1687 -4 0 -689
924 -1253 1690 l-29 39 1282 0 1282 0 -31 -42z m-606 -2693 l636 -860 -641 -3
c-352 -1 -928 -1 -1280 0 l-640 3 637 863 c351 474 641 861 644 860 4 -2 294
-390 644 -863z m885 -970 c53 -27 57 -115 7 -150 -19 -13 -209 -15 -1505 -15
l-1483 0 -24 25 c-43 42 -32 115 20 143 14 8 445 11 1488 12 1291 0 1472 -2
1497 -15z"/>
<path d="M2402 4982 c2 -5 62 -88 133 -185 l130 -177 75 -29 c92 -36 791 -292
804 -294 7 -2 479 627 507 676 9 16 -33 17 -821 17 -458 0 -830 -4 -828 -8z"/>
<path d="M2945 2540 c-154 -210 -281 -384 -283 -388 -2 -8 1396 -367 1402
-361 4 5 -827 1128 -834 1128 -3 1 -132 -170 -285 -379z"/>
</g>
</svg>
