<?xml version="1.0" standalone="no"?>
<!DOCTYPE svg PUBLIC "-//W3C//DTD SVG 20010904//EN"
 "http://www.w3.org/TR/2001/REC-SVG-20010904/DTD/svg10.dtd">
<svg version="1.0" xmlns="http://www.w3.org/2000/svg"
 width="556.000000pt" height="527.000000pt" viewBox="0 0 556.000000 527.000000"
 preserveAspectRatio="xMidYMid meet">

<g transform="translate(0.000000,527.000000) scale(0.100000,-0.100000)"
fill="#000000" stroke="none">
<path d="M2335 4998 c-111 -39 -164 -159 -116 -263 17 -38 429 -760 477 -836
73 -116 212 -143 308 -59 18 17 78 102 132 190 55 87 102 159 107 160 4 0 7
-362 7 -805 l0 -805 185 0 185 0 0 1205 0 1205 -127 0 c-71 0 -144 -5 -164
-10 -75 -21 -97 -47 -268 -319 -91 -145 -170 -264 -176 -263 -5 0 -79 119
-163 264 -85 145 -163 274 -175 287 -48 52 -141 74 -212 49z"/>
<path d="M1189 4990 c-144 -11 -282 -49 -414 -115 -132 -65 -214 -126 -318
-235 -174 -181 -283 -407 -322 -665 -57 -382 57 -749 320 -1024 107 -112 217
-193 350 -257 177 -85 244 -99 470 -98 161 0 202 4 267 22 419 115 712 397
855 820 34 101 36 116 40 262 4 144 3 157 -17 188 -37 60 -27 59 -701 58 -684
-2 -648 2 -686 -69 -24 -45 -24 -217 0 -267 32 -67 16 -64 509 -70 l448 -5
-44 -90 c-240 -488 -885 -573 -1226 -162 -57 69 -138 228 -166 327 -25 88 -26
298 -1 390 24 92 97 235 153 300 135 159 326 259 523 274 73 5 57 -8 202 165
57 69 130 153 162 188 l59 63 -59 0 c-33 0 -113 2 -179 4 -65 3 -167 1 -225
-4z"/>
<path d="M3720 3795 c0 -1171 0 -1194 19 -1205 13 -7 169 -8 480 -3 l461 6 0
144 0 143 -310 0 -310 0 2 378 3 377 308 3 307 2 0 145 0 145 -307 2 -308 3 0
375 0 375 308 3 307 2 0 150 0 150 -480 0 -480 0 0 -1195z"/>
<path d="M1830 1190 l0 -1140 485 0 485 0 0 125 c0 84 -5 136 -14 158 -16 39
-61 82 -99 96 -17 7 -127 11 -283 11 l-254 0 0 255 0 255 325 0 325 0 0 195 0
195 -325 0 -325 0 0 299 0 299 253 4 c274 3 282 5 339 65 46 48 58 92 58 213
l0 110 -485 0 -485 0 0 -1140z"/>
<path d="M4053 2313 l-43 -15 0 -1124 0 -1124 200 0 200 0 0 258 0 259 64 82
c64 82 65 82 79 59 8 -13 95 -160 192 -328 98 -168 183 -311 190 -318 8 -9 61
-12 222 -10 l211 3 -270 475 c-148 261 -270 478 -271 482 -1 3 124 149 279
325 155 175 293 333 308 351 l28 32 -254 -1 -253 0 -182 -197 c-99 -108 -216
-239 -260 -289 l-78 -93 -5 508 -5 507 -28 47 c-65 111 -198 156 -324 111z"/>
</g>
</svg>
