<?xml version="1.0" standalone="no"?>
<!DOCTYPE svg PUBLIC "-//W3C//DTD SVG 20010904//EN"
 "http://www.w3.org/TR/2001/REC-SVG-20010904/DTD/svg10.dtd">
<svg version="1.0" xmlns="http://www.w3.org/2000/svg"
 width="1061.000000pt" height="291.000000pt" viewBox="0 0 1061.000000 291.000000"
 preserveAspectRatio="xMidYMid meet">

<g transform="translate(0.000000,291.000000) scale(0.100000,-0.100000)"
fill="#000000" stroke="none">
<path d="M2335 2638 c-111 -39 -164 -159 -116 -263 17 -38 429 -760 477 -836
73 -116 212 -143 308 -59 18 17 78 102 132 190 55 87 102 159 107 160 4 0 7
-362 7 -805 l0 -805 185 0 185 0 0 1205 0 1205 -127 0 c-71 0 -144 -5 -164
-10 -75 -21 -97 -47 -268 -319 -91 -145 -170 -264 -176 -263 -5 0 -79 119
-163 264 -85 145 -163 274 -175 287 -48 52 -141 74 -212 49z"/>
<path d="M1189 2630 c-144 -11 -282 -49 -414 -115 -132 -65 -214 -126 -318
-235 -174 -181 -283 -407 -322 -665 -57 -382 57 -749 320 -1024 107 -112 217
-193 350 -257 177 -85 244 -99 470 -98 161 0 202 4 267 22 419 115 712 397
855 820 34 101 36 116 40 262 4 144 3 157 -17 188 -37 60 -27 59 -701 58 -684
-2 -648 2 -686 -69 -24 -45 -24 -217 0 -267 32 -67 16 -64 509 -70 l448 -5
-44 -90 c-240 -488 -885 -573 -1226 -162 -57 69 -138 228 -166 327 -25 88 -26
298 -1 390 24 92 97 235 153 300 135 159 326 259 523 274 73 5 57 -8 202 165
57 69 130 153 162 188 l59 63 -59 0 c-33 0 -113 2 -179 4 -65 3 -167 1 -225
-4z"/>
<path d="M3720 1435 c0 -1171 0 -1194 19 -1205 13 -7 169 -8 480 -3 l461 6 0
144 0 143 -310 0 -310 0 2 377 3 378 308 3 307 2 0 145 0 145 -307 2 -308 3 0
375 0 375 308 3 307 2 0 150 0 150 -480 0 -480 0 0 -1195z"/>
<path d="M6766 1537 c0 -600 1 -1140 2 -1199 l2 -108 510 0 510 0 0 118 c0
133 -10 178 -47 222 -53 63 -60 65 -365 68 l-278 3 0 265 0 264 345 0 345 0 0
205 0 205 -345 0 -345 0 0 319 0 320 274 3 274 3 44 30 c23 17 54 51 68 75 21
40 25 60 28 173 l4 127 -513 0 -514 0 1 -1093z"/>
<path d="M9155 2623 c-11 -2 -37 -11 -57 -20 l-38 -16 0 -1179 0 -1178 210 0
210 0 0 269 0 269 67 85 c37 47 69 84 73 82 3 -2 98 -161 210 -354 l205 -350
225 -3 c124 -2 227 -2 229 -1 1 1 -126 229 -284 508 -251 443 -285 508 -273
523 7 9 148 170 313 357 166 187 304 346 309 353 6 9 -48 12 -257 12 l-264 0
-200 -217 c-111 -120 -232 -255 -269 -300 -38 -45 -72 -82 -76 -82 -5 -1 -8
234 -8 522 l0 523 -26 52 c-55 110 -180 171 -299 145z"/>
</g>
</svg>
