<?xml version="1.0" standalone="no"?>
<!DOCTYPE svg PUBLIC "-//W3C//DTD SVG 20010904//EN"
 "http://www.w3.org/TR/2001/REC-SVG-20010904/DTD/svg10.dtd">
<svg version="1.0" xmlns="http://www.w3.org/2000/svg"
 width="656.000000pt" height="656.000000pt" viewBox="0 0 656.000000 656.000000"
 preserveAspectRatio="xMidYMid meet">

<g transform="translate(0.000000,656.000000) scale(0.100000,-0.100000)"
fill="#000000" stroke="none">
<path d="M740 3370 l0 -1030 2377 0 2376 0 -6 -183 c-10 -254 -36 -345 -138
-467 -108 -130 -267 -202 -488 -220 -74 -7 -169 -20 -210 -31 -222 -56 -405
-210 -516 -434 -36 -74 -40 -88 -46 -195 -9 -147 -11 -654 -2 -742 l6 -68 68
0 69 0 0 343 c0 188 5 373 10 411 32 216 157 393 344 482 81 39 167 58 331 74
267 25 479 143 611 342 97 145 134 295 134 539 l0 149 75 0 75 0 0 1030 0
1030 -2535 0 -2535 0 0 -1030z m2227 163 c-4 -137 -7 -425 -7 -640 l0 -393
-845 0 -845 0 0 393 c0 215 -3 503 -7 640 l-6 247 858 0 858 0 -6 -247z m2310
0 c-4 -137 -7 -425 -7 -640 l0 -393 -845 0 -845 0 0 393 c0 215 -3 503 -7 640
l-6 247 858 0 858 0 -6 -247z"/>
<path d="M1950 3593 l-30 -28 -7 -157 -6 -158 -166 0 c-147 0 -170 -2 -198
-20 -71 -43 -73 -234 -2 -284 20 -13 53 -16 196 -16 l173 0 0 -145 c0 -219 17
-239 197 -233 104 3 105 3 134 36 l29 32 0 155 0 155 170 0 c103 0 179 4 194
11 44 20 59 64 55 162 -4 79 -6 89 -32 114 l-27 28 -180 3 -180 3 0 145 c0
212 -9 223 -177 224 -109 0 -114 -1 -143 -27z"/>
<path d="M3972 3314 c-65 -32 -108 -84 -129 -153 -29 -101 0 -197 79 -265 40
-35 117 -66 163 -66 50 0 128 33 170 71 134 124 103 340 -60 415 -71 33 -154
33 -223 -2z"/>
<path d="M4692 3325 c-54 -24 -98 -63 -125 -112 -57 -107 -42 -219 43 -303
161 -162 430 -50 430 177 0 144 -110 253 -255 252 -33 0 -75 -6 -93 -14z"/>
</g>
</svg>
