<?xml version="1.0" standalone="no"?>
<!DOCTYPE svg PUBLIC "-//W3C//DTD SVG 20010904//EN"
 "http://www.w3.org/TR/2001/REC-SVG-20010904/DTD/svg10.dtd">
<svg version="1.0" xmlns="http://www.w3.org/2000/svg"
 width="656.000000pt" height="656.000000pt" viewBox="0 0 656.000000 656.000000"
 preserveAspectRatio="xMidYMid meet">

<g transform="translate(0.000000,656.000000) scale(0.100000,-0.100000)"
fill="#000000" stroke="none">
<path d="M0 3285 l0 -3275 3275 0 3275 0 0 3275 0 3275 -3275 0 -3275 0 0
-3275z m4386 1376 c73 -33 142 -118 248 -307 31 -55 56 -112 56 -126 0 -14
-16 -49 -35 -78 -79 -118 -27 -292 110 -363 31 -15 57 -20 111 -19 62 1 74 -2
92 -21 11 -12 57 -92 101 -177 96 -186 113 -253 88 -341 -20 -66 -69 -126
-146 -178 -31 -20 -153 -92 -271 -158 -677 -379 -1276 -715 -1656 -929 -489
-275 -528 -296 -603 -318 -175 -52 -274 17 -433 302 -79 141 -80 149 -32 218
36 52 39 62 39 123 -1 79 -33 149 -91 201 -53 46 -93 60 -173 60 -64 0 -71 2
-93 28 -13 16 -59 98 -102 184 -75 147 -79 159 -84 235 -6 104 14 150 94 222
64 57 104 80 1234 714 393 220 818 458 944 529 247 139 376 203 434 218 47 11
116 3 168 -19z"/>
<path d="M4190 4622 c-30 -10 -174 -85 -320 -167 -146 -82 -587 -329 -980
-550 -393 -221 -818 -459 -945 -530 -126 -70 -252 -146 -280 -167 -146 -114
-148 -204 -13 -452 39 -72 77 -138 85 -147 10 -12 26 -15 62 -11 114 11 235
-72 280 -193 34 -89 27 -184 -17 -255 -21 -34 -31 -61 -28 -74 8 -29 127 -227
173 -287 20 -27 55 -62 77 -77 34 -23 49 -27 110 -27 85 0 117 14 384 164
1851 1035 2198 1232 2254 1281 82 71 105 150 74 254 -8 26 -49 112 -92 191
l-78 145 -61 0 c-122 0 -212 55 -267 164 -45 88 -50 174 -15 247 15 30 33 63
41 74 14 19 11 29 -47 133 -80 145 -146 234 -195 267 -53 35 -128 41 -202 17z
m-405 -917 c44 -44 36 -67 -98 -261 -535 -779 -495 -724 -543 -724 -48 0 -79
30 -78 76 0 34 36 91 298 469 163 237 306 438 318 448 29 25 74 22 103 -8z
m-531 -119 c72 -30 100 -106 67 -181 -49 -112 -213 -104 -251 11 -22 67 10
142 74 170 40 17 69 17 110 0z m-830 -83 c8 -19 -17 -48 -33 -39 -15 10 -14
43 2 49 21 9 25 8 31 -10z m90 -159 c9 -24 7 -31 -10 -38 -10 -4 -22 1 -29 11
-11 14 -10 19 4 30 21 16 28 16 35 -3z m91 -180 c0 -10 -7 -20 -16 -22 -21 -4
-34 28 -17 40 19 11 33 4 33 -18z m1205 -22 c98 -49 107 -195 15 -252 -70 -43
-176 -16 -209 54 -47 99 23 216 129 216 17 0 46 -8 65 -18z m-1111 -130 c12
-23 -19 -48 -38 -29 -15 15 -14 34 2 40 21 9 26 8 36 -11z m84 -190 c-15 -11
-20 -10 -31 5 -11 15 -10 20 5 31 15 11 20 10 31 -5 11 -15 10 -20 -5 -31z
m101 -139 c4 -9 1 -20 -6 -25 -19 -12 -26 -10 -38 11 -7 14 -6 21 3 24 23 10
35 7 41 -10z m90 -159 c7 -19 -1 -34 -19 -34 -18 0 -28 17 -21 35 7 20 32 19
40 -1z m90 -161 c5 -11 0 -22 -11 -31 -15 -11 -19 -10 -27 8 -7 16 -6 24 5 31
20 13 26 11 33 -8z m85 -194 c-20 -13 -26 -11 -33 8 -5 11 0 22 11 31 15 11
19 10 27 -8 7 -16 6 -24 -5 -31z"/>
</g>
</svg>
