<?xml version="1.0" standalone="no"?>
<!DOCTYPE svg PUBLIC "-//W3C//DTD SVG 20010904//EN"
 "http://www.w3.org/TR/2001/REC-SVG-20010904/DTD/svg10.dtd">
<svg version="1.0" xmlns="http://www.w3.org/2000/svg"
 width="1061.000000pt" height="291.000000pt" viewBox="0 0 1061.000000 291.000000"
 preserveAspectRatio="xMidYMid meet">

<g transform="translate(0.000000,291.000000) scale(0.100000,-0.100000)"
fill="#000000" stroke="none">
<path d="M1809 2641 c-14 -5 -38 -16 -53 -26 -14 -10 -176 -200 -358 -424
-182 -223 -338 -414 -346 -423 -14 -17 -3 -18 224 -18 l239 1 148 179 c81 99
151 180 155 180 7 -1 292 -501 292 -513 0 -4 -230 -8 -511 -9 l-511 -3 -33
-36 c-26 -29 -35 -49 -40 -94 -10 -74 0 -176 20 -215 31 -60 31 -60 510 -60
275 0 435 -4 435 -10 0 -5 -11 -34 -24 -65 -117 -263 -397 -445 -686 -445
-169 0 -351 73 -477 193 -120 114 -188 228 -235 394 -29 103 -31 285 -4 388
40 153 112 272 229 381 41 38 105 86 143 106 89 47 230 88 304 88 l59 0 77 93
c43 50 124 144 181 208 56 64 99 119 96 123 -10 10 -390 7 -488 -4 -325 -38
-598 -195 -794 -459 -151 -204 -228 -427 -238 -692 -11 -287 47 -497 203 -731
117 -176 312 -344 497 -428 231 -105 489 -124 746 -55 357 96 664 376 801 730
18 47 36 82 40 78 4 -4 105 -181 224 -393 120 -212 225 -394 234 -404 23 -26
91 -56 128 -56 40 0 127 44 159 81 34 41 49 102 37 150 -9 37 -1151 2063
-1199 2127 -40 54 -123 82 -184 63z"/>
<path d="M2315 2632 c-79 -37 -122 -116 -112 -204 5 -40 45 -116 223 -426 306
-533 295 -516 356 -546 67 -33 119 -33 185 0 56 27 59 31 194 249 l74 119 5
-799 5 -800 188 -3 187 -2 0 1206 0 1206 -154 -4 c-212 -4 -195 10 -404 -323
-89 -143 -166 -263 -171 -268 -8 -8 -41 47 -247 401 -105 180 -131 204 -228
209 -44 3 -72 -2 -101 -15z"/>
<path d="M3720 1430 l0 -1200 23 -5 c12 -3 229 -4 482 -3 l460 3 3 148 3 147
-311 0 -310 0 0 380 0 380 310 0 311 0 -3 148 -3 147 -307 3 -308 2 0 375 0
375 310 0 311 0 -3 148 -3 147 -482 3 -483 2 0 -1200z"/>
<path d="M5945 2619 c-416 -60 -773 -368 -915 -789 -84 -248 -85 -552 -4 -797
164 -493 660 -846 1134 -809 183 15 365 71 507 156 47 27 86 50 88 50 3 0 6
-46 7 -102 l3 -103 510 0 510 0 0 146 c0 137 -1 147 -24 181 -13 19 -40 46
-59 59 -35 24 -38 24 -319 27 l-283 3 0 265 0 264 345 0 345 0 0 205 0 205
-345 0 -345 0 0 320 0 320 263 0 c297 0 316 4 375 76 43 52 52 89 52 222 l0
112 -892 -1 c-491 -1 -920 -5 -953 -10z m815 -704 l0 -325 -400 0 c-449 0
-448 0 -477 -68 -22 -50 -22 -223 0 -274 28 -66 51 -71 286 -67 114 2 293 3
399 1 l192 -2 0 -147 0 -147 -47 -44 c-111 -105 -276 -186 -429 -213 -91 -16
-260 -6 -352 21 -332 94 -567 385 -589 727 -28 432 295 810 728 852 46 5 220
9 387 10 l302 1 0 -325z"/>
<path d="M7890 1425 l0 -1205 510 0 510 0 0 137 c0 161 -15 206 -83 251 l-40
27 -279 3 -278 3 0 265 0 264 340 0 340 0 0 205 0 205 -340 0 -340 0 0 320 0
320 258 0 c283 0 306 5 364 66 47 51 58 92 58 224 l0 120 -510 0 -510 0 0
-1205z"/>
<path d="M9119 2615 c-26 -8 -52 -21 -58 -29 -8 -10 -10 -324 -9 -1187 l3
-1174 215 0 215 0 5 281 5 280 62 77 61 77 210 -357 210 -358 226 -3 c124 -1
226 1 226 6 0 5 -129 235 -286 512 -284 501 -285 503 -266 524 146 162 622
706 622 711 0 3 -119 5 -264 5 l-265 0 -209 -227 c-116 -126 -237 -261 -271
-300 l-60 -73 -3 523 -3 522 -27 51 c-28 54 -77 103 -131 130 -44 23 -151 27
-208 9z"/>
<path d="M4231 2214 c-61 -51 -49 -144 24 -178 44 -21 84 -14 119 21 95 95
-40 244 -143 157z"/>
<path d="M4227 1914 c-33 -33 -41 -57 -33 -99 15 -81 116 -112 178 -56 28 25
33 36 33 75 0 36 -6 51 -29 75 -25 26 -37 31 -77 31 -37 0 -52 -5 -72 -26z"/>
<path d="M4296 1114 c-12 -11 -16 -36 -16 -90 l0 -74 -70 0 c-58 0 -71 -3 -80
-19 -15 -29 -12 -83 6 -109 13 -19 24 -22 80 -22 l64 0 0 -73 c0 -43 5 -78 12
-85 16 -16 100 -16 116 0 7 7 12 42 12 85 l0 73 64 0 c45 0 69 5 80 16 19 19
22 104 4 122 -7 7 -40 12 -80 12 l-68 0 0 74 c0 54 -4 79 -16 90 -20 21 -88
21 -108 0z"/>
</g>
</svg>
